<?xml version="1.0" standalone="no"?>
<!DOCTYPE svg PUBLIC "-//W3C//DTD SVG 20010904//EN"
 "http://www.w3.org/TR/2001/REC-SVG-20010904/DTD/svg10.dtd">
<svg version="1.0" xmlns="http://www.w3.org/2000/svg"
 width="600.000000pt" height="489.000000pt" viewBox="0 0 600.000000 489.000000"
 preserveAspectRatio="xMidYMid meet">

<g transform="translate(0.000000,489.000000) scale(0.100000,-0.100000)"
fill="#000000" stroke="none">
<path d="M1195 4727 c-64 -31 -138 -110 -169 -182 -21 -46 -32 -59 -68 -75
-24 -11 -51 -20 -62 -20 -10 0 -48 -30 -85 -67 -52 -52 -73 -82 -90 -127 -21
-58 -22 -62 -6 -130 19 -87 61 -164 112 -204 52 -41 148 -72 223 -72 47 0 64
-4 80 -20 30 -30 26 -79 -11 -131 -170 -244 -288 -480 -374 -747 -17 -55 -35
-71 -147 -136 -63 -36 -62 -56 5 -101 l52 -35 0 -298 c0 -241 4 -314 18 -390
28 -149 82 -349 122 -457 40 -107 51 -159 41 -199 -10 -40 -55 -85 -98 -98
-50 -15 -132 -88 -160 -142 -15 -29 -23 -66 -26 -123 -4 -74 -2 -88 22 -137
35 -71 125 -155 195 -181 56 -21 58 -23 85 -115 18 -63 56 -109 131 -160 47
-33 55 -35 150 -38 92 -3 104 -2 148 22 53 28 64 37 110 82 46 44 69 54 130
54 40 0 63 -6 88 -23 103 -69 238 -142 364 -196 11 -5 36 -16 55 -24 154 -67
309 -113 540 -161 88 -19 591 -23 650 -6 19 5 80 19 135 31 147 31 414 122
503 171 18 10 37 18 42 18 10 0 227 125 286 165 53 36 92 30 184 -30 93 -60
163 -85 242 -85 80 0 124 22 201 103 46 48 61 72 74 119 15 54 18 58 46 58 74
0 208 104 251 195 23 47 21 178 -3 231 -26 58 -77 111 -136 145 -28 16 -62 40
-74 53 -28 30 -39 102 -21 137 22 41 110 311 135 414 49 201 57 264 61 480 2
116 6 215 8 222 3 6 32 30 66 53 40 27 60 47 58 58 -3 13 -62 56 -155 110 -7
4 -26 60 -42 123 -66 257 -132 411 -278 651 -67 111 -84 169 -53 189 8 5 62 9
120 9 134 0 185 17 261 87 65 61 99 128 107 215 10 111 -72 228 -205 292 -78
38 -90 51 -98 99 -11 61 -27 87 -93 149 -134 124 -305 120 -453 -11 -85 -74
-109 -173 -73 -297 12 -41 13 -58 4 -75 -24 -44 -146 -8 -270 81 -176 126
-510 244 -815 289 -174 26 -234 31 -358 31 -337 0 -634 -77 -1019 -265 -202
-98 -262 -83 -213 55 36 101 6 201 -84 289 -72 70 -129 94 -231 99 -74 3 -92
0 -135 -21z m225 -117 c20 -10 57 -41 83 -69 41 -44 47 -55 47 -94 0 -59 -15
-100 -62 -171 l-38 -59 57 -61 c32 -34 143 -148 248 -254 104 -106 191 -196
192 -200 1 -4 -23 -27 -53 -52 -31 -25 -74 -66 -96 -92 -22 -27 -45 -48 -51
-48 -6 0 -121 113 -256 250 l-246 251 -55 -28 c-47 -24 -67 -28 -135 -28 -72
0 -84 3 -123 29 -133 90 -130 276 5 342 44 22 67 26 133 26 l80 0 -6 71 c-5
62 -2 78 18 117 46 90 158 120 258 70z m3309 -123 c22 -15 48 -42 58 -59 18
-35 24 -133 10 -180 l-7 -28 67 0 c146 -1 232 -69 241 -190 5 -75 -8 -108 -63
-159 -42 -39 -95 -61 -146 -61 -36 0 -134 35 -170 61 l-30 21 -27 -24 c-158
-146 -533 -478 -541 -478 -5 0 -27 24 -49 53 -22 28 -63 75 -91 104 -28 28
-51 53 -51 56 0 3 100 94 222 204 122 109 233 209 247 222 14 13 37 33 51 45
40 33 43 44 21 75 -44 61 -71 135 -71 192 0 55 1 58 50 103 67 63 101 77 176
73 47 -2 72 -9 103 -30z m-1969 -51 c0 -2 -8 -10 -17 -17 -16 -13 -17 -12 -4
4 13 16 21 21 21 13z m480 -77 c36 -3 -62 -7 -217 -7 l-281 -2 11 -24 c7 -13
15 -22 19 -19 5 2 6 9 3 14 -4 5 1 9 9 9 13 0 16 -13 16 -70 0 -45 4 -70 11
-70 8 0 10 23 7 70 l-4 70 39 0 c23 0 36 -4 32 -10 -3 -5 -14 -10 -25 -10 -10
0 -20 -6 -22 -12 -7 -25 7 -113 19 -115 7 -2 10 4 7 12 -4 8 -1 15 6 15 8 0
11 -12 8 -35 -5 -40 8 -46 62 -32 49 13 61 25 53 56 -8 35 -13 39 -24 18 -6
-9 -16 -17 -24 -17 -9 0 -14 -8 -12 -21 1 -12 -4 -24 -10 -26 -10 -4 -13 18
-13 86 l0 91 30 0 c24 0 30 -4 30 -21 0 -12 5 -19 13 -16 6 2 11 12 9 21 -2
13 2 17 15 14 10 -2 17 -10 15 -18 -2 -7 2 -17 9 -21 10 -6 10 -19 0 -63 -7
-31 -9 -61 -5 -67 4 -7 0 -9 -14 -5 -23 8 -41 -11 -20 -19 8 -3 32 -1 53 4 22
5 31 9 20 10 -17 1 -20 7 -18 38 1 21 2 62 2 91 1 51 2 52 31 52 34 0 40 -15
10 -23 -17 -4 -20 -14 -20 -67 0 -53 3 -63 20 -67 11 -3 20 -12 20 -19 0 -17
115 -20 125 -3 4 6 -3 22 -16 36 l-24 25 -5 -23 c-8 -32 -34 -46 -54 -30 -22
18 -23 143 -1 161 32 26 66 -6 50 -48 -5 -14 -7 -14 -15 -2 -5 8 -6 18 -3 23
3 5 0 8 -7 5 -12 -4 -15 -28 -11 -97 1 -27 16 -20 16 7 0 10 7 16 18 16 12 -1
17 6 17 23 0 13 5 33 10 44 12 22 70 55 70 39 0 -5 -6 -10 -14 -10 -16 0 -46
-37 -46 -56 0 -8 11 -11 31 -9 24 3 30 1 27 -13 -1 -9 1 -23 6 -31 6 -9 3 -17
-8 -23 -14 -8 -15 -12 -4 -26 8 -10 9 -13 1 -9 -6 4 -14 3 -18 -3 -3 -6 4 -10
16 -10 29 0 19 -10 -17 -16 -16 -3 -33 -9 -38 -15 -15 -14 -64 -11 -89 5 -24
16 -85 19 -104 4 -7 -6 -19 -6 -31 1 -11 6 -22 8 -25 5 -3 -3 -19 -6 -36 -6
-41 -1 -25 -19 21 -23 18 -2 40 -3 48 -4 13 -1 13 -2 0 -11 -21 -14 -74 -12
-88 2 -9 9 -12 9 -12 0 0 -9 -17 -12 -57 -10 -32 2 -57 7 -55 11 1 4 2 12 2
17 0 13 47 13 55 0 4 -6 11 -8 16 -4 20 12 -10 30 -48 29 -46 -1 -66 -12 -59
-31 3 -8 1 -14 -4 -14 -6 0 -10 6 -10 13 0 8 -7 14 -15 14 -8 0 -15 -4 -15 -8
0 -5 -9 -13 -20 -19 -17 -9 -19 -8 -13 7 4 10 11 21 17 26 14 9 -25 4 -41 -6
-8 -5 -13 -3 -13 3 0 6 -4 8 -10 5 -5 -3 -10 -2 -10 3 0 5 -11 7 -25 4 -14 -2
-22 -8 -20 -12 3 -5 0 -12 -6 -16 -7 -4 -22 4 -36 20 -29 34 -29 46 -2 46 18
0 20 4 14 23 -11 30 -11 77 -1 105 6 19 4 24 -13 29 -12 3 -21 9 -21 13 0 27
38 30 334 30 204 0 306 4 306 11 0 6 5 7 13 2 6 -4 41 -11 77 -14z m410 -72
c0 -2 -10 -12 -22 -23 l-23 -19 19 23 c18 21 26 27 26 19z m-780 -41 c0 -3 -4
-8 -10 -11 -5 -3 -10 -1 -10 4 0 6 5 11 10 11 6 0 10 -2 10 -4z m700 -97 c0
-5 -4 -9 -10 -9 -5 0 -10 7 -10 16 0 8 5 12 10 9 6 -3 10 -10 10 -16z m-940
-54 c20 -24 6 -28 -15 -5 -10 11 -13 20 -8 20 6 0 16 -7 23 -15z m630 11 c0
-11 -19 -15 -25 -6 -3 5 1 10 9 10 9 0 16 -2 16 -4z m391 -17 c8 -17 8 -20 -2
-17 -7 2 -13 12 -15 21 -3 23 3 21 17 -4z m-1131 -34 c-7 -9 -15 -13 -17 -11
-6 6 20 36 26 30 2 -2 -2 -10 -9 -19z m1093 4 c-4 -15 -9 -17 -17 -9 -8 8 -7
13 4 20 8 5 16 10 17 10 0 0 -1 -9 -4 -21z m-266 5 c-3 -3 -12 -4 -19 -1 -8 3
-5 6 6 6 11 1 17 -2 13 -5z m183 -14 c0 -5 -5 -10 -11 -10 -5 0 -7 5 -4 10 3
6 8 10 11 10 2 0 4 -4 4 -10z m-1335 -18 c-3 -3 -11 0 -18 7 -9 10 -8 11 6 5
10 -3 15 -9 12 -12z m-67 -22 c-1 -17 -6 -30 -14 -30 -7 0 -16 -5 -20 -12 -5
-7 -3 -8 6 -3 9 5 11 4 6 -3 -4 -7 -13 -12 -21 -12 -7 0 -16 -6 -18 -12 -4 -9
-6 -7 -6 3 -1 9 12 28 29 42 18 16 27 33 24 42 -4 8 -1 15 4 15 6 0 10 -13 10
-30z m157 20 c3 -5 1 -10 -4 -10 -6 0 -11 5 -11 10 0 6 2 10 4 10 3 0 8 -4 11
-10z m-275 -58 c0 -13 -4 -20 -10 -17 -15 9 -25 -24 -11 -38 9 -9 11 -8 6 4
-5 13 1 18 24 21 36 5 39 -6 12 -41 l-18 -23 -34 31 c-31 28 -32 32 -16 42 9
5 17 17 17 24 0 8 5 15 10 15 7 0 7 7 0 23 -11 21 -10 21 4 3 9 -11 16 -30 16
-44z m162 26 c-7 -7 -12 -8 -12 -2 0 14 12 26 19 19 2 -3 -1 -11 -7 -17z
m1423 11 c-4 -5 2 -18 13 -27 10 -9 17 -23 15 -29 -3 -7 0 -13 7 -13 6 0 8 5
5 10 -3 6 -2 10 4 10 6 0 8 7 4 16 -5 14 -3 13 15 -2 12 -10 22 -20 22 -23 0
-2 -3 -1 -7 2 -3 4 -17 -8 -31 -26 -15 -20 -22 -25 -18 -12 6 19 5 19 -8 2
-14 -18 -14 -18 -21 2 -3 12 -10 21 -15 21 -4 0 -13 13 -18 30 -9 24 -8 31 6
40 22 13 35 13 27 -1z m-1385 -29 c5 0 15 7 24 15 8 8 18 15 22 15 5 0 3 -5
-4 -12 -7 -7 -12 -20 -12 -30 0 -23 -26 -24 -38 -1 -8 13 -9 11 -9 -12 0 -15
-7 -31 -14 -36 -18 -11 -26 -2 -11 13 7 7 12 17 12 23 0 5 -4 4 -9 -3 -7 -11
-9 -11 -14 2 -4 9 1 17 14 21 10 4 20 14 20 23 1 15 2 15 6 0 2 -10 8 -18 13
-18z m1230 15 c0 -9 -6 -12 -15 -9 -8 4 -15 10 -15 15 0 5 7 9 15 9 8 0 15 -7
15 -15z m110 -35 c7 -16 17 -30 23 -30 6 0 8 -2 5 -5 -6 -7 -60 16 -69 28 -4
5 -18 10 -31 10 -30 2 -26 27 3 27 10 0 19 5 19 10 0 21 37 -9 50 -40z m-1492
11 c3 -8 -1 -12 -9 -9 -7 2 -15 10 -17 17 -3 8 1 12 9 9 7 -2 15 -10 17 -17z
m1662 -11 c0 -5 -8 -10 -17 -10 -15 0 -16 2 -3 10 19 12 20 12 20 0z m183 -21
c-6 -6 -9 -18 -6 -25 3 -8 1 -14 -4 -14 -13 0 -12 33 1 42 17 11 21 9 9 -3z
m-167 -49 c-28 -22 -56 -32 -56 -19 0 5 12 14 26 19 14 6 22 14 19 20 -12 19
6 32 20 14 11 -15 9 -20 -9 -34z m-564 0 c339 -71 632 -255 842 -529 54 -70
110 -160 104 -167 -3 -2 -66 6 -139 20 -195 36 -463 72 -709 97 -363 36 -985
28 -1482 -18 -38 -3 -68 -2 -68 2 0 21 104 151 189 235 199 198 475 336 756
376 128 19 382 11 507 -16z m663 20 c3 -5 2 -10 -4 -10 -5 0 -13 5 -16 10 -3
6 -2 10 4 10 5 0 13 -4 16 -10z m-27 -31 c-18 -12 -48 -11 -48 1 0 6 9 10 21
10 13 0 18 4 13 13 -5 8 -2 7 10 -2 13 -11 14 -16 4 -22z m-1668 17 c0 -2 -11
-6 -25 -8 -13 -3 -22 -1 -19 3 5 9 44 13 44 5z m1771 -46 c6 0 7 -5 3 -11 -4
-8 0 -8 15 0 26 15 28 0 2 -19 -11 -7 -17 -18 -14 -23 3 -5 -4 -6 -18 -2 -31
10 -46 13 -35 7 4 -2 2 -8 -5 -13 -12 -8 -11 -11 1 -19 12 -8 12 -10 -5 -10
-11 0 -27 5 -35 11 -12 9 -11 10 5 5 19 -6 19 -5 2 8 -17 14 -17 15 1 28 12 8
18 22 15 37 -3 21 -1 22 14 10 15 -12 16 -12 10 5 -6 14 -4 17 8 12 8 -3 16 0
16 7 1 7 4 2 6 -10 2 -13 9 -23 14 -23z m-141 -10 c0 -22 -26 -34 -34 -14 -8
21 4 44 20 37 8 -3 14 -13 14 -23z m24 -35 c-4 -8 -11 -15 -16 -15 -6 0 -5 6
2 15 7 8 14 15 16 15 2 0 1 -7 -2 -15z m-2274 -305 c8 -5 11 -10 5 -10 -5 0
-17 5 -25 10 -8 5 -10 10 -5 10 6 0 17 -5 25 -10z m37 -34 c-4 -9 -1 -13 7
-10 16 6 40 -66 26 -80 -7 -7 -10 -4 -10 7 0 10 -15 23 -36 32 -35 14 -36 21
-9 52 14 17 28 16 22 -1z m-16 -86 c10 0 19 -5 19 -11 0 -6 -7 -8 -16 -5 -9 3
-22 6 -30 6 -8 0 -11 6 -7 17 4 11 8 12 11 5 2 -7 12 -12 23 -12z m2763 -72
c-3 -4 -15 -13 -27 -18 -20 -10 -20 -10 -4 3 9 8 17 23 17 33 0 15 2 16 9 4 6
-8 7 -18 5 -22z m-2804 -4 c0 -8 -4 -12 -10 -9 -5 3 -10 10 -10 16 0 5 5 9 10
9 6 0 10 -7 10 -16z m3032 -26 c-7 -7 -12 -8 -12 -2 0 6 3 14 7 17 3 4 9 5 12
2 2 -3 -1 -11 -7 -17z m-3028 -9 c21 17 20 13 -4 -35 -16 -33 -19 -35 -18 -14
0 14 -3 34 -7 45 -5 15 -4 17 3 6 9 -12 13 -12 26 -2z m2806 -29 c0 -6 9 -6
25 0 17 6 25 6 25 -1 0 -5 7 -9 16 -7 10 2 19 -3 22 -11 3 -10 0 -12 -12 -8
-35 14 -13 -3 29 -22 25 -11 45 -25 45 -31 0 -6 -4 -8 -10 -5 -5 3 -10 1 -10
-4 0 -13 -2 -13 38 -2 20 6 30 6 27 0 -4 -5 -14 -9 -23 -9 -9 0 3 -9 27 -20
32 -15 42 -24 37 -36 -4 -10 1 -22 11 -30 17 -12 16 -13 -4 -14 -13 0 -23 5
-23 10 0 5 -4 9 -9 8 -5 -2 -16 6 -25 17 -14 20 -15 19 -13 -5 0 -14 6 -28 12
-32 6 -5 6 -8 -2 -8 -7 0 -18 9 -25 20 -7 11 -18 20 -25 20 -6 0 -13 5 -15 11
-2 7 -21 13 -41 14 -20 1 -36 6 -35 11 2 5 18 8 36 6 52 -6 37 15 -18 22 -54
7 -54 7 -64 50 -6 26 -6 28 9 16 13 -11 18 -11 28 0 10 10 9 12 -5 7 -12 -4
-15 -2 -11 9 4 12 1 13 -20 5 -22 -8 -24 -7 -20 10 5 19 23 27 23 9z m-2830
-64 c0 -8 -4 -18 -10 -21 -5 -3 -10 3 -10 14 0 12 5 21 10 21 6 0 10 -6 10
-14z m-50 -26 c0 -5 -2 -10 -4 -10 -3 0 -8 5 -11 10 -3 6 -1 10 4 10 6 0 11
-4 11 -10z m1665 -100 c357 -25 919 -102 1205 -166 244 -55 525 -144 675 -214
l70 -33 -35 -7 c-106 -23 -464 -81 -531 -86 l-79 -7 0 50 c0 106 -37 159 -140
197 -238 88 -943 149 -1725 149 -503 1 -789 -19 -950 -64 -53 -15 -120 -85
-136 -141 -6 -24 -13 -48 -14 -55 -3 -8 -28 -6 -92 8 -48 10 -184 39 -301 64
-117 25 -216 45 -219 45 -45 0 200 93 365 139 147 41 248 58 447 76 94 8 247
21 340 30 382 35 756 40 1120 15z m1445 -24 c0 -2 -7 -7 -16 -10 -8 -3 -12 -2
-9 4 6 10 25 14 25 6z m50 0 c0 -2 -7 -6 -15 -10 -8 -3 -15 -1 -15 4 0 6 7 10
15 10 8 0 15 -2 15 -4z m-1445 -206 c495 -23 961 -80 1089 -134 l39 -16 -6
-148 c-6 -162 -34 -295 -87 -421 -167 -392 -497 -663 -938 -773 -120 -30 -464
-33 -587 -5 -138 31 -246 70 -362 128 -391 197 -653 540 -733 959 -28 143 -25
281 5 322 32 45 162 73 400 88 182 11 943 11 1180 0z m-2007 -283 c5 9 17 10
37 4 25 -8 30 -14 9 -10 -3 1 -19 -12 -36 -28 -27 -25 -30 -26 -24 -6 4 12 2
24 -4 28 -5 3 -10 12 -10 18 0 7 4 6 10 -3 8 -11 12 -12 18 -3z m62 -67 c0
-13 -1 -13 -10 0 -5 8 -10 22 -10 30 0 13 1 13 10 0 5 -8 10 -22 10 -30z m76
-62 c-8 -65 -25 -89 -57 -81 -26 7 -24 19 3 26 22 6 22 6 3 25 -11 11 -24 17
-30 14 -5 -3 -7 -2 -3 2 8 9 69 43 81 45 4 0 6 -14 3 -31z m-231 12 c3 -5 1
-10 -4 -10 -6 0 -11 5 -11 10 0 6 2 10 4 10 3 0 8 -4 11 -10z m88 -5 c-3 -9
-8 -14 -10 -11 -3 3 -2 9 2 15 9 16 15 13 8 -4z m3663 -41 c-4 -11 -14 -14
-28 -11 -12 4 -27 2 -33 -3 -24 -20 -147 -11 -161 11 -7 12 33 11 75 -1 19 -5
39 -6 45 -2 14 8 18 9 59 11 22 1 28 4 18 10 -7 5 -10 14 -7 20 11 17 39 -16
32 -35z m34 2 c0 -2 -7 -9 -15 -16 -13 -11 -14 -10 -9 4 5 14 24 23 24 12z
m-320 -15 c0 -10 -30 -24 -37 -17 -3 3 -2 9 2 15 8 13 35 15 35 2z m-3350 -16
c0 -7 -30 -13 -34 -7 -3 4 4 9 15 9 10 1 19 0 19 -2z m3640 -9 c0 -11 -52 -36
-62 -30 -6 4 3 12 23 19 19 7 35 13 37 14 1 0 2 -1 2 -3z m24 -40 c-1 -9 4
-16 11 -16 7 0 16 -7 19 -16 4 -12 2 -15 -9 -10 -8 3 -14 0 -12 -7 1 -7 -5
-10 -13 -8 -8 2 -29 4 -47 5 -39 2 -54 14 -18 14 33 0 59 21 45 37 -5 6 -7 15
-3 19 11 11 28 0 27 -18z m-3670 -12 c3 -8 1 -14 -4 -14 -6 0 -10 5 -10 10 0
6 -5 10 -11 10 -5 0 -8 -4 -5 -8 2 -4 -5 -9 -16 -9 -19 -2 -19 -1 -3 17 18 20
40 17 49 -6z m3326 -17 c0 -7 7 -23 16 -36 13 -18 18 -20 25 -10 14 24 19 4
21 -97 3 -94 2 -99 -17 -96 -11 1 -27 3 -36 4 -9 1 -16 8 -16 15 0 6 4 10 8 8
4 -3 18 -1 31 4 21 8 20 9 -15 16 -28 6 -42 3 -56 -9 -18 -16 -41 -22 -41 -10
0 4 8 13 18 21 15 13 15 13 -5 3 -13 -6 -23 -15 -23 -20 0 -6 -8 -10 -17 -10
-15 0 -16 2 -3 10 13 9 13 10 0 10 -12 1 -11 3 3 14 13 10 15 15 5 18 -11 4
-10 10 1 31 7 14 11 33 7 42 -8 21 19 63 28 43 5 -10 7 -10 12 0 7 16 25 16
22 0 -2 -7 7 -13 20 -14 15 -1 19 2 13 10 -4 6 -8 18 -8 26 -1 8 -4 24 -9 34
-5 14 -4 17 4 12 7 -4 12 -13 12 -19z m175 13 c-3 -5 -12 -7 -20 -3 -21 7 -19
13 6 13 11 0 18 -4 14 -10z m68 3 c-7 -2 -19 -2 -25 0 -7 3 -2 5 12 5 14 0 19
-2 13 -5z m47 -3 c0 -5 -7 -10 -15 -10 -8 0 -15 5 -15 10 0 6 7 10 15 10 8 0
15 -4 15 -10z m-3347 -38 c20 -18 22 -50 3 -75 -13 -16 -15 -14 -29 25 -8 24
-18 51 -22 61 -6 14 -4 16 11 11 11 -4 27 -14 37 -22z m3002 8 c3 -5 -1 -10
-10 -10 -9 0 -13 5 -10 10 3 6 8 10 10 10 2 0 7 -4 10 -10z m-3321 -45 c-4 -8
-11 -12 -16 -9 -6 4 -5 10 3 15 19 12 19 11 13 -6z m87 -18 c-10 -9 -11 -8 -5
6 3 10 9 15 12 12 3 -3 0 -11 -7 -18z m3609 13 c-8 -5 -10 -10 -5 -10 6 -1 -1
-6 -14 -11 l-25 -10 24 -16 23 -16 -34 -17 c-18 -10 -45 -16 -60 -13 -15 2
-30 -1 -34 -7 -8 -13 -62 -13 -70 1 -5 6 -12 4 -21 -8 -12 -16 -13 -13 -12 29
1 45 3 47 25 42 16 -4 25 -1 29 10 8 20 34 21 34 1 0 -8 8 -15 18 -14 13 0 14
2 2 6 -22 9 56 41 100 42 26 1 31 -2 20 -9z m-3655 -29 c-3 -12 -14 -21 -23
-20 -10 0 -12 3 -5 5 7 3 9 12 6 21 -4 11 -2 14 5 9 7 -4 12 -2 12 5 0 7 3 10
6 6 3 -3 3 -15 -1 -26z m26 -28 c-12 -20 -14 -14 -5 12 4 9 9 14 11 11 3 -2 0
-13 -6 -23z m196 -22 c11 -6 13 -11 5 -11 -7 0 -22 -9 -34 -20 -29 -26 -48
-25 -49 3 0 12 -2 32 -5 45 -4 22 -3 22 31 8 19 -8 43 -20 52 -25z m3488 27
c5 4 5 1 1 -6 -6 -10 -11 -10 -22 -1 -8 6 -14 14 -14 16 0 3 6 0 13 -6 8 -6
18 -7 22 -3z m-3627 -38 c7 -11 13 -23 14 -27 0 -5 8 -13 16 -19 12 -8 5 -13
-34 -23 -27 -7 -57 -15 -66 -18 -14 -3 -15 -1 -5 21 7 14 14 21 15 16 4 -10
42 -14 42 -5 0 3 -5 14 -12 24 -11 18 -6 51 9 51 5 0 14 -9 21 -20z m-86 -35
c-14 -29 -20 -34 -25 -21 -4 9 -3 16 2 16 4 0 13 12 20 26 6 15 14 24 17 21 3
-3 -3 -22 -14 -42z m3699 13 c6 1 8 -2 4 -8 -3 -5 2 -10 12 -10 15 0 16 -2 3
-10 -19 -13 -33 -13 -25 0 3 5 -9 14 -27 19 -18 5 -27 10 -20 10 6 1 12 9 12
19 1 15 2 15 16 -3 8 -11 20 -19 25 -17z m-3727 6 c3 -8 2 -12 -4 -9 -6 3 -10
10 -10 16 0 14 7 11 14 -7z m3540 -30 c9 -3 16 -15 16 -26 0 -10 -4 -16 -10
-13 -5 3 -10 1 -10 -4 0 -6 -5 -11 -10 -11 -6 0 -8 10 -4 24 4 18 1 25 -13 29
-15 4 -15 5 -1 6 9 0 23 -2 32 -5z m143 0 c-3 -3 -12 -4 -19 -1 -8 3 -5 6 6 6
11 1 17 -2 13 -5z m-190 -40 c10 -21 9 -26 -3 -31 -19 -7 -26 0 -29 32 -4 33
17 32 32 -1z m153 11 c-6 -8 -10 -20 -7 -27 4 -8 6 -7 6 5 1 9 6 17 11 17 12
0 13 -27 1 -34 -15 -10 -40 5 -34 20 3 9 -1 14 -12 14 -9 0 -13 5 -10 10 3 6
18 10 32 10 21 0 23 -2 13 -15z m-373 -1 c-3 -3 -12 -4 -19 -1 -8 3 -5 6 6 6
11 1 17 -2 13 -5z m-2923 -28 c-3 -8 -12 -17 -20 -20 -18 -7 -18 -1 2 18 19
20 25 20 18 2z m-354 -5 c0 -5 -8 -15 -17 -22 -11 -10 -14 -10 -9 -1 4 7 2 12
-4 12 -6 0 -8 5 -5 10 8 12 35 13 35 1z m86 -16 c-2 -15 1 -22 7 -18 6 4 8 0
4 -10 -3 -9 -1 -18 6 -21 7 -2 -3 -5 -22 -5 -25 -1 -32 2 -27 14 3 8 -3 19
-12 25 -15 10 -14 11 6 6 13 -2 21 -2 18 1 -5 5 11 33 19 33 2 0 2 -11 1 -25z
m299 15 c3 -5 1 -10 -4 -10 -6 0 -11 5 -11 10 0 6 2 10 4 10 3 0 8 -4 11 -10z
m3242 -16 c-3 -3 -12 -4 -19 -1 -8 3 -5 6 6 6 11 1 17 -2 13 -5z m-197 -13 c0
-5 -7 -11 -15 -15 -15 -5 -20 5 -8 17 9 10 23 9 23 -2z m-3405 -29 c-3 -3 -11
0 -18 7 -9 10 -8 11 6 5 10 -3 15 -9 12 -12z m272 12 c-3 -3 -12 -4 -19 -1 -8
3 -5 6 6 6 11 1 17 -2 13 -5z m34 -6 c0 -10 2 -10 6 0 2 6 17 11 31 11 17 -1
20 -3 10 -6 -10 -2 -23 -22 -30 -44 l-11 -40 -13 31 c-9 21 -20 30 -36 30
l-23 0 25 14 c32 18 40 19 41 4z m84 -18 c-4 -6 -12 -9 -18 -7 -7 2 -18 -3
-25 -12 -11 -14 -12 -14 -10 4 2 12 11 20 23 20 12 1 19 7 17 15 -3 12 -1 12
8 3 7 -6 9 -16 5 -23z m-408 -6 c-3 -3 -12 -4 -19 -1 -8 3 -5 6 6 6 11 1 17
-2 13 -5z m213 -14 c14 -26 3 -70 -16 -63 -8 3 -14 0 -14 -7 0 -8 -7 -9 -17
-5 -31 12 -93 15 -93 4 0 -6 4 -8 9 -5 5 3 14 -1 21 -9 7 -8 17 -15 22 -15 6
0 5 7 -2 15 -8 9 -9 15 -2 15 19 0 25 -23 9 -35 -17 -12 -17 -30 -2 -55 7 -13
6 -13 -7 -2 -19 15 -47 6 -50 -17 0 -9 -2 -20 -3 -26 -2 -5 -3 -16 -4 -22 0
-7 -9 -13 -18 -12 -13 0 -14 2 -4 6 9 4 10 8 2 12 -12 8 -22 68 -14 89 5 11 7
11 15 0 6 -8 7 0 2 22 -3 19 -12 39 -18 43 -6 5 -2 6 10 2 16 -4 21 -1 21 12
0 42 4 54 15 51 6 -2 32 1 57 8 63 17 69 17 81 -6z m3366 5 c3 -8 -1 -21 -9
-30 -21 -20 -33 -19 -16 2 11 13 11 17 2 20 -18 6 -16 23 2 23 9 0 18 -7 21
-15z m-3617 -14 c7 -5 10 -14 7 -20 -10 -16 0 -14 17 4 13 13 15 7 15 -44 -1
-32 2 -63 5 -68 3 -5 2 -15 -4 -23 -7 -13 -9 -12 -9 3 0 23 -38 60 -53 50 -7
-4 -4 5 6 20 19 29 22 41 8 33 -5 -3 -22 1 -37 9 -20 10 -24 15 -11 15 10 0
20 7 23 15 7 17 13 18 33 6z m91 -11 c0 -5 -4 -10 -10 -10 -5 0 -10 5 -10 10
0 6 5 10 10 10 6 0 10 -4 10 -10z m3109 -63 c-63 -33 -69 -35 -69 -23 0 7 9
22 20 34 12 12 17 22 13 22 -4 0 -1 5 7 10 11 7 17 3 24 -16 4 -14 6 -26 5
-27z m321 13 c0 -5 -4 -10 -10 -10 -5 0 -10 5 -10 10 0 6 5 10 10 10 6 0 10
-4 10 -10z m-220 -40 c0 -5 -5 -10 -11 -10 -5 0 -7 5 -4 10 3 6 8 10 11 10 2
0 4 -4 4 -10z m-21 -62 c-6 -23 -12 -45 -15 -50 -8 -12 -38 -10 -52 4 -17 17
-15 29 3 22 9 -4 15 -1 15 7 0 10 44 56 56 59 1 0 -2 -19 -7 -42z m239 20 c17
-17 15 -25 -5 -30 -13 -4 -18 1 -18 19 0 26 5 29 23 11z m-303 -8 c3 -5 1 -10
-4 -10 -6 0 -11 5 -11 10 0 6 2 10 4 10 3 0 8 -4 11 -10z m-3225 -29 c0 -4 -7
-8 -15 -8 -16 0 -20 9 -9 20 8 8 24 -1 24 -12z m182 -9 c-7 -2 -12 -8 -12 -13
0 -6 4 -8 9 -5 16 10 21 -38 6 -54 -13 -13 -15 -12 -15 3 0 10 5 15 10 12 6
-3 10 -1 10 5 0 7 -8 9 -20 5 -12 -4 -20 -2 -20 5 0 6 -4 8 -10 5 -18 -11 -11
8 11 32 12 12 27 19 32 16 8 -5 7 -8 -1 -11z m3388 2 c0 -8 -4 -12 -10 -9 -5
3 -10 10 -10 16 0 5 5 9 10 9 6 0 10 -7 10 -16z m-2801 -62 c31 -32 78 -77
105 -101 l50 -42 -25 -23 c-13 -13 -121 -110 -239 -216 -118 -106 -255 -230
-305 -275 -49 -45 -103 -93 -119 -107 l-29 -24 31 -43 c38 -52 72 -140 72
-184 0 -86 -117 -177 -227 -177 -64 0 -131 36 -161 86 -20 34 -22 50 -19 125
l3 87 -80 4 c-103 6 -155 31 -191 91 -113 194 84 384 295 284 30 -15 62 -32
71 -38 14 -11 32 1 115 78 172 158 589 533 593 533 2 0 29 -26 60 -58z m2748
38 c-1 -11 -5 -20 -9 -20 -4 0 -8 9 -8 20 0 11 4 20 9 20 6 0 9 -9 8 -20z
m-222 -289 l296 -299 42 24 c66 36 137 48 200 33 74 -17 152 -96 162 -162 14
-95 -19 -172 -90 -210 -30 -15 -64 -22 -131 -25 l-91 -4 8 -45 c18 -93 -14
-169 -86 -210 -80 -45 -185 -23 -265 57 -81 81 -80 149 3 273 l43 64 -297 303
-296 304 96 96 c53 53 99 98 103 98 3 1 140 -133 303 -297z m168 256 c4 3 7
-5 7 -19 0 -14 -7 -31 -15 -38 -19 -16 -19 -32 -1 -28 8 2 15 -1 16 -7 1 -5
-7 -12 -17 -13 -10 -2 -23 -10 -30 -19 -9 -12 -15 -12 -32 -1 -27 17 -27 28 0
25 12 -1 24 5 26 13 4 13 3 13 -6 0 -9 -13 -11 -13 -11 2 0 9 -5 18 -12 20
-14 5 -20 38 -7 38 6 0 7 5 4 10 -4 6 5 10 19 10 14 0 26 5 26 11 0 8 4 9 13
0 8 -6 17 -8 20 -4z m-3338 -27 c3 -5 1 -10 -4 -10 -6 0 -11 5 -11 10 0 6 2
10 4 10 3 0 8 -4 11 -10z m3230 -58 c-3 -3 -11 0 -18 7 -9 10 -8 11 6 5 10 -3
15 -9 12 -12z m165 -28 c0 -8 -4 -12 -10 -9 -5 3 -10 10 -10 16 0 5 5 9 10 9
6 0 10 -7 10 -16z m-49 -21 c0 -5 2 -15 4 -23 1 -10 -5 -15 -21 -15 -20 0 -21
2 -8 16 8 9 11 19 7 22 -3 4 -1 7 5 7 7 0 12 -3 13 -7z m86 -79 c-3 -3 -12 -4
-19 -1 -8 3 -5 6 6 6 11 1 17 -2 13 -5z m93 -48 c0 -11 -19 -15 -25 -6 -3 5 1
10 9 10 9 0 16 -2 16 -4z m-2645 -35 c3 -5 1 -12 -5 -16 -5 -3 -10 1 -10 9 0
18 6 21 15 7z m65 -26 c0 -3 -9 -5 -20 -5 -11 0 -20 7 -20 15 0 13 4 14 20 5
11 -6 20 -13 20 -15z m1620 -5 c0 -5 -4 -10 -10 -10 -5 0 -10 5 -10 10 0 6 5
10 10 10 6 0 10 -4 10 -10z m30 0 c0 -5 -2 -10 -4 -10 -3 0 -8 5 -11 10 -3 6
-1 10 4 10 6 0 11 -4 11 -10z m-70 -10 c-8 -5 -26 -9 -40 -9 l-25 1 25 8 c14
4 32 8 40 9 13 1 13 0 0 -9z m-1552 -23 c2 -11 -3 -17 -16 -17 -15 0 -19 5
-15 20 6 24 26 21 31 -3z m-128 -33 c25 -23 40 -45 40 -60 0 -29 -5 -30 -54
-3 l-39 21 -19 -24 c-11 -14 -16 -32 -12 -47 4 -21 3 -23 -10 -12 -8 7 -20 10
-26 6 -7 -4 -14 2 -17 14 -3 12 -13 21 -22 21 -14 1 -14 2 2 11 9 5 22 7 29 3
7 -4 8 -3 4 4 -5 8 1 12 18 12 14 0 28 5 31 10 3 6 1 10 -5 10 -6 0 -8 5 -4
11 4 6 19 9 36 5 21 -4 28 -2 25 7 -2 6 -11 11 -20 9 -13 -2 -16 10 -8 36 2 7
15 -1 51 -34z m477 -19 c9 -3 7 -21 -6 -70 -10 -36 -21 -68 -24 -71 -8 -9
-168 57 -174 72 -6 15 26 105 40 115 8 6 80 -15 164 -46z m948 -27 c14 -29 25
-58 25 -65 0 -18 -122 -76 -131 -61 -6 10 -22 107 -24 142 0 9 64 33 93 35 7
1 24 -23 37 -51z m192 26 c2 -13 1 -15 -4 -4 -3 8 -11 19 -17 23 -7 6 -6 7 4
4 8 -2 16 -12 17 -23z m76 10 c-7 -3 -9 -13 -6 -22 6 -15 5 -15 -11 -3 -13 11
-14 16 -4 22 7 5 18 8 23 8 6 0 5 -3 -2 -5z m-1039 -44 c34 -5 82 -12 109 -15
l47 -6 0 -76 0 -75 -67 6 c-97 10 -192 27 -197 35 -4 6 11 70 29 129 5 14 3
14 79 2z m550 -12 c20 -93 26 -132 21 -136 -10 -10 -117 -20 -222 -21 l-103
-1 0 75 0 75 58 1 c31 0 93 6 137 13 44 7 86 14 92 15 7 0 15 -9 17 -21z
m-1104 -12 c0 -2 -5 -17 -11 -34 -14 -41 -29 -32 -29 19 0 37 2 39 20 29 11
-6 20 -12 20 -14z m1610 -6 c-26 -20 -41 -21 -47 -3 -3 7 10 13 29 16 18 2 35
4 38 5 3 1 -6 -7 -20 -18z m-30 -40 c0 -5 -4 -10 -10 -10 -5 0 -10 5 -10 10 0
6 5 10 10 10 6 0 10 -4 10 -10z m-1933 -65 c7 -19 5 -21 -32 -29 -24 -5 -26
-4 -12 4 9 6 17 18 17 25 0 20 19 19 27 0z m263 -5 c0 -5 -4 -10 -10 -10 -5 0
-10 5 -10 10 0 6 5 10 10 10 6 0 10 -4 10 -10z m278 -9 c20 -10 55 -24 77 -31
59 -18 60 -22 40 -90 -21 -71 -24 -71 -122 -8 -65 42 -67 46 -57 111 8 43 11
44 62 18z m-492 -11 c0 -11 -4 -20 -8 -20 -4 0 -8 2 -8 4 0 2 -3 11 -6 20 -4
10 -1 16 8 16 7 0 14 -9 14 -20z m1699 -56 c5 -42 3 -60 -7 -69 -16 -17 -128
-78 -133 -73 -2 1 -6 32 -10 68 l-7 66 69 31 c37 17 71 32 74 32 4 1 10 -24
14 -55z m-1715 21 c7 -8 9 -15 6 -15 -4 0 -14 7 -22 15 -9 8 -11 15 -6 15 5 0
15 -7 22 -15z m216 -50 c-11 -8 -22 -12 -25 -9 -6 6 19 24 34 24 6 -1 1 -7 -9
-15z m702 -6 l112 -13 0 -83 c0 -82 0 -83 -26 -83 -46 0 -168 21 -236 41 -76
22 -77 24 -51 106 17 54 17 55 53 50 19 -3 86 -11 148 -18z m546 -11 c19 -91
24 -124 18 -130 -14 -14 -159 -39 -260 -45 l-103 -6 3 89 3 89 152 6 c84 3
156 8 160 12 12 13 23 7 27 -15z m854 5 c-10 -2 -26 -2 -35 0 -10 3 -2 5 17 5
19 0 27 -2 18 -5z m-2353 -13 c3 -5 -1 -10 -10 -10 -9 0 -13 5 -10 10 3 6 8
10 10 10 2 0 7 -4 10 -10z m281 -20 c8 0 14 -9 14 -20 0 -11 -6 -20 -12 -20
-8 0 -9 -3 -3 -8 6 -4 11 -13 13 -21 2 -10 -4 -12 -25 -6 -15 3 -28 7 -29 8 0
1 -8 13 -17 27 -27 39 -22 54 14 46 17 -3 38 -6 45 -6z m1971 4 c-3 -3 -12 -4
-19 -1 -8 3 -5 6 6 6 11 1 17 -2 13 -5z m123 -4 c0 -26 -35 -80 -52 -80 -15 0
-18 7 -17 38 1 20 4 40 6 45 6 11 63 9 63 -3z m-2340 -15 c0 -8 -4 -15 -10
-15 -5 0 -10 7 -10 15 0 8 5 15 10 15 6 0 10 -7 10 -15z m2129 -22 c15 4 21 0
22 -11 1 -15 2 -15 6 1 2 9 9 17 14 17 6 0 7 -4 4 -10 -3 -6 5 -10 19 -10 38
0 42 -20 4 -21 -27 0 -30 -2 -13 -9 12 -5 14 -9 6 -9 -8 -1 -11 -4 -7 -8 8 -8
13 -9 40 -12 16 -1 15 -33 -1 -38 -11 -4 -63 45 -63 58 0 14 -41 17 -47 3 -3
-10 -10 -11 -23 -4 -20 11 -30 4 -30 -22 0 -12 -6 -17 -21 -15 -12 1 -24 -5
-26 -13 -4 -13 -3 -13 7 0 9 13 11 12 8 -4 -3 -19 -38 -33 -38 -15 0 6 -6 9
-14 7 -20 -4 -59 43 -47 55 7 7 15 7 23 0 23 -18 58 -22 71 -8 6 7 21 25 31
39 19 26 20 27 30 7 8 -15 15 -18 26 -10 13 8 13 11 -2 20 -10 5 -18 15 -18
22 0 8 3 7 9 -2 5 -8 18 -12 30 -8z m-2089 -2 c0 -17 57 -40 69 -28 6 6 11 8
11 4 0 -4 -9 -16 -20 -27 -16 -16 -20 -17 -20 -5 0 23 -28 18 -35 -6 -5 -15
-10 -18 -17 -11 -8 8 -5 16 7 28 16 16 16 19 1 29 -18 14 -21 25 -6 25 6 0 10
-4 10 -9z m478 -54 c86 -44 211 -87 332 -113 68 -15 128 -18 300 -18 202 0
221 2 315 27 55 15 135 45 178 66 l79 40 -7 -47 c-23 -168 -128 -287 -306
-347 -158 -53 -460 -44 -647 19 -146 50 -259 133 -302 222 -31 63 -46 204 -21
192 3 -2 39 -20 79 -41z m1493 -10 c-8 -8 -11 -7 -11 4 0 20 13 34 18 19 3 -7
-1 -17 -7 -23z m-1848 16 c-7 -2 -19 -2 -25 0 -7 3 -2 5 12 5 14 0 19 -2 13
-5z m87 -33 c8 -5 12 -11 9 -14 -3 -3 -14 1 -25 9 -21 16 -8 20 16 5z m-121
-13 c-9 -7 -14 -18 -12 -24 3 -7 1 -13 -4 -13 -13 0 -12 33 1 42 19 13 32 8
15 -5z m1937 -32 c-9 -9 -16 -13 -16 -8 0 12 22 34 28 28 2 -2 -3 -11 -12 -20z
m109 5 c-3 -5 -1 -10 5 -10 6 0 8 -5 5 -10 -5 -8 -11 -7 -21 1 -14 12 -10 29
7 29 6 0 7 -4 4 -10z m-1915 -74 c-8 -8 -13 -7 -20 4 -8 12 -10 12 -10 1 0 -8
8 -20 17 -26 17 -13 17 -14 0 -33 -12 -13 -26 -18 -39 -14 -18 4 -16 7 13 19
33 15 34 15 12 26 -13 5 -23 16 -23 23 0 7 -6 11 -14 8 -21 -8 -29 12 -15 38
l12 22 20 -25 c14 -16 18 -18 14 -6 -5 13 0 20 16 26 19 7 22 5 25 -22 2 -16
-2 -35 -8 -41z m-367 44 c-3 -11 -7 -20 -9 -20 -2 0 -4 9 -4 20 0 11 4 20 9
20 5 0 7 -9 4 -20z m118 -37 c-12 -20 -14 -14 -5 12 4 9 9 14 11 11 3 -2 0
-13 -6 -23z m129 11 c0 -8 -5 -12 -10 -9 -6 4 -8 11 -5 16 9 14 15 11 15 -7z
m-210 -29 c-7 -9 -15 -13 -17 -11 -7 7 7 26 19 26 6 0 6 -6 -2 -15z m237 -52
c-17 -18 -22 -8 -11 22 5 12 10 13 17 6 8 -8 6 -16 -6 -28z m1828 -3 c3 -5 1
-10 -4 -10 -6 0 -11 5 -11 10 0 6 2 10 4 10 3 0 8 -4 11 -10z m-1911 -35 c-4
-8 -8 -15 -10 -15 -2 0 -4 7 -4 15 0 8 4 15 10 15 5 0 7 -7 4 -15z m138 -40
c3 -14 1 -25 -3 -25 -5 0 -9 11 -9 25 0 14 2 25 4 25 2 0 6 -11 8 -25z m131
-20 c-7 -21 -13 -19 -13 6 0 11 4 18 10 14 5 -3 7 -12 3 -20z m-243 5 c0 -5
-4 -10 -10 -10 -5 0 -10 5 -10 10 0 6 5 10 10 10 6 0 10 -4 10 -10z m0 -84 c0
-28 -13 -11 -16 21 -2 21 -1 24 6 13 5 -8 10 -24 10 -34z m114 21 c-3 -8 2
-20 11 -27 12 -10 15 -10 15 0 0 18 10 7 14 -17 3 -13 -2 -19 -15 -20 -10 -1
-19 4 -19 12 0 21 -19 28 -36 14 -13 -10 -17 -10 -24 0 -4 8 -13 10 -19 7 -6
-4 -11 -1 -11 7 0 21 12 28 27 16 10 -9 19 -7 35 4 29 20 28 20 22 4z m76 -1
c0 -20 42 -28 60 -11 21 19 39 19 46 0 4 -8 15 -15 27 -15 11 0 17 -3 14 -7
-4 -3 -27 -5 -51 -5 -46 2 -67 -11 -47 -31 8 -8 15 -6 26 9 11 15 15 16 16 4
1 -8 1 -18 0 -22 0 -4 9 -13 20 -19 17 -8 23 -8 29 2 5 7 25 14 45 15 29 3 36
0 31 -11 -3 -8 -1 -17 5 -20 5 -4 6 -11 3 -17 -4 -6 -10 -6 -17 1 -14 14 -47
14 -47 0 0 -6 10 -8 23 -5 12 3 16 3 10 0 -7 -3 -12 -15 -12 -27 1 -17 2 -18
6 -4 5 18 43 24 43 6 0 -5 5 -7 12 -3 8 5 8 9 1 11 -13 5 -4 53 9 53 6 0 8 -6
5 -14 -3 -7 1 -23 9 -34 10 -15 11 -21 2 -24 -7 -3 -3 -13 12 -28 19 -19 20
-22 4 -15 -10 4 -47 15 -81 23 -60 15 -68 22 -64 58 1 6 -18 17 -41 24 -24 8
-51 23 -60 34 -10 10 -18 14 -18 8 0 -6 7 -17 15 -26 14 -14 21 -46 10 -46 -4
0 -19 7 -35 15 -30 16 -40 32 -32 53 4 11 6 11 13 1 5 -8 7 -1 7 18 -1 22 -5
30 -14 26 -8 -3 -14 0 -14 6 0 6 5 11 11 11 5 0 7 5 4 10 -3 6 -1 10 4 10 6 0
11 -6 11 -14z m148 -64 c-10 -2 -18 -9 -18 -15 0 -7 -4 -6 -9 3 -14 20 -5 29
22 22 18 -5 19 -7 5 -10z m1052 -122 c0 -5 -2 -10 -4 -10 -3 0 -8 5 -11 10 -3
6 -1 10 4 10 6 0 11 -4 11 -10z m-725 -26 c0 -15 7 -19 35 -17 19 1 36 6 38
12 5 16 27 13 42 -4 7 -8 20 -15 29 -14 12 0 12 2 -4 10 -15 7 -9 8 20 4 94
-14 261 -23 269 -14 14 13 26 11 24 -3 -5 -21 -37 -26 -178 -26 -115 0 -130 1
-103 11 31 11 29 12 -31 12 -35 0 -59 -4 -53 -8 14 -9 -83 0 -133 14 -19 5
-46 10 -60 13 -16 2 -12 4 13 5 21 0 36 5 32 10 -3 5 5 11 17 14 34 6 43 2 43
-19z m65 0 c0 -2 -9 -4 -21 -4 -11 0 -18 4 -14 10 5 8 35 3 35 -6z m416 -51
c-10 -10 -19 5 -10 18 6 11 8 11 12 0 2 -7 1 -15 -2 -18z m34 17 c0 -5 -4 -10
-10 -10 -5 0 -10 5 -10 10 0 6 5 10 10 10 6 0 10 -4 10 -10z"/>
<path d="M2552 4333 c2 -10 11 -16 19 -14 59 15 78 17 93 9 18 -10 56 -2 56
13 0 5 -39 9 -86 9 -76 0 -85 -2 -82 -17z"/>
<path d="M2715 4311 c-3 -6 1 -25 9 -43 l14 -33 1 43 c1 39 -10 54 -24 33z"/>
<path d="M2930 4265 c0 -25 5 -45 10 -45 6 0 10 20 10 45 0 25 -4 45 -10 45
-5 0 -10 -20 -10 -45z"/>
<path d="M2645 4230 c-10 -16 7 -31 23 -21 10 6 10 10 -2 20 -10 9 -16 9 -21
1z"/>
<path d="M3220 4227 c0 -13 28 -56 31 -47 1 3 3 17 5 33 2 21 -1 27 -17 27
-10 0 -19 -6 -19 -13z"/>
<path d="M2587 4224 c-9 -10 2 -24 19 -24 8 0 14 7 14 15 0 15 -21 21 -33 9z"/>
<path d="M2721 4206 c-8 -20 -8 -33 -2 -39 13 -13 24 13 19 45 -4 22 -5 22
-17 -6z"/>
<path d="M2757 4160 c-3 -11 -1 -20 4 -20 5 0 9 9 9 20 0 11 -2 20 -4 20 -2 0
-6 -9 -9 -20z"/>
<path d="M2796 4155 c-3 -8 -1 -15 4 -15 6 0 10 7 10 15 0 8 -2 15 -4 15 -2 0
-6 -7 -10 -15z"/>
<path d="M3145 4120 c8 -13 35 -13 55 0 11 7 5 10 -23 10 -23 0 -36 -4 -32
-10z"/>
<path d="M3877 3840 c-3 -11 -1 -20 4 -20 5 0 9 9 9 20 0 11 -2 20 -4 20 -2 0
-6 -9 -9 -20z"/>
<path d="M4345 3174 l-30 -15 30 6 c17 4 34 11 40 16 13 13 -5 10 -40 -7z"/>
<path d="M4388 3163 c-24 -6 -23 -23 2 -23 11 0 20 7 20 15 0 8 -1 14 -2 14
-2 -1 -11 -3 -20 -6z"/>
<path d="M2195 2620 c-164 -25 -299 -138 -346 -289 -109 -353 281 -669 625
-506 204 96 292 337 198 538 -84 180 -283 288 -477 257z"/>
<path d="M3431 2570 c-173 -37 -311 -174 -341 -339 -41 -226 128 -451 366
-492 242 -40 471 120 504 352 28 200 -95 390 -298 460 -67 23 -171 31 -231 19z"/>
<path d="M2802 1793 c-19 -9 -44 -35 -59 -60 -48 -82 -15 -186 73 -228 51 -24
138 -17 181 14 44 33 67 89 60 147 -5 52 -29 89 -77 122 -40 27 -128 30 -178
5z"/>
<path d="M4800 2259 c0 -5 5 -7 10 -4 6 3 10 8 10 11 0 2 -4 4 -10 4 -5 0 -10
-5 -10 -11z"/>
<path d="M4490 2170 c0 -15 21 -23 32 -12 6 6 2 11 -11 15 -12 3 -21 1 -21 -3z"/>
<path d="M4404 2136 c-10 -8 -17 -16 -14 -19 8 -8 50 11 50 23 0 14 -13 13
-36 -4z"/>
<path d="M4745 2190 c-3 -5 -2 -10 4 -10 5 0 13 5 16 10 3 6 2 10 -4 10 -5 0
-13 -4 -16 -10z"/>
<path d="M4717 2183 c-11 -11 -8 -21 9 -27 13 -5 14 -4 6 7 -7 8 -9 17 -5 20
3 4 4 7 1 7 -2 0 -8 -3 -11 -7z"/>
<path d="M4681 2146 c4 -4 21 -11 39 -16 20 -6 30 -6 24 -1 -10 11 -72 27 -63
17z"/>
<path d="M4655 2120 c-3 -5 -1 -10 4 -10 6 0 11 5 11 10 0 6 -2 10 -4 10 -3 0
-8 -4 -11 -10z"/>
<path d="M1195 1880 c3 -5 12 -7 20 -3 21 7 19 13 -6 13 -11 0 -18 -4 -14 -10z"/>
<path d="M1300 1880 c0 -5 5 -10 10 -10 6 0 10 5 10 10 0 6 -4 10 -10 10 -5 0
-10 -4 -10 -10z"/>
<path d="M1197 1800 c-4 -17 -2 -18 14 -9 11 5 17 14 14 20 -10 15 -22 10 -28
-11z"/>
<path d="M1162 1740 c0 -14 2 -19 5 -12 2 6 2 18 0 25 -3 6 -5 1 -5 -13z"/>
<path d="M1045 1870 c3 -5 10 -10 16 -10 5 0 9 5 9 10 0 6 -7 10 -16 10 -8 0
-12 -4 -9 -10z"/>
<path d="M1101 1844 c0 -11 3 -14 6 -6 3 7 2 16 -1 19 -3 4 -6 -2 -5 -13z"/>
<path d="M1087 1814 c6 -15 23 -19 23 -5 0 5 -7 11 -14 14 -10 4 -13 1 -9 -9z"/>
<path d="M4482 1615 c-11 -12 -10 -15 3 -15 8 0 15 7 15 15 0 18 -2 18 -18 0z"/>
<path d="M1920 1169 c0 -5 5 -7 10 -4 6 3 10 8 10 11 0 2 -4 4 -10 4 -5 0 -10
-5 -10 -11z"/>
<path d="M2026 894 c-5 -14 -4 -15 9 -4 17 14 19 20 6 20 -5 0 -12 -7 -15 -16z"/>
<path d="M4105 870 c3 -5 8 -10 11 -10 2 0 4 5 4 10 0 6 -5 10 -11 10 -5 0 -7
-4 -4 -10z"/>
</g>
</svg>
